<svg width="102" height="102" viewBox="0 0 102 102" fill="none" xmlns="http://www.w3.org/2000/svg">
<path d="M34.8691 26.7332V57.9331H45.8855V54.4665H52.1805C53.4327 54.4665 54.6336 53.9186 55.519 52.9434C56.4044 51.9682 56.9018 50.6456 56.9018 49.2665V26.7332H34.8691Z" fill="#FAB991"/>
<path d="M34.8692 57.9333H52.1806C53.4328 57.9333 54.6337 58.4812 55.5191 59.4564C56.4045 60.4316 56.9019 61.7542 56.9019 63.1333V77H30.1479V63.1333C30.1479 61.7542 30.6454 60.4316 31.5308 59.4564C32.4162 58.4812 33.6171 57.9333 34.8692 57.9333Z" fill="#353744"/>
<path d="M34.8692 57.9333C36.1214 57.9333 37.3223 58.4812 38.2077 59.4564C39.0931 60.4316 39.5905 61.7542 39.5905 63.1333V77H30.1479V63.1333C30.1479 61.7542 30.6454 60.4316 31.5308 59.4564C32.4162 58.4812 33.6171 57.9333 34.8692 57.9333Z" fill="#55525B"/>
<path d="M38.0167 54.4666H45.8855V57.9332H34.8691C34.8691 57.0138 35.2008 56.132 35.791 55.4819C36.3813 54.8318 37.1819 54.4666 38.0167 54.4666Z" fill="#F0915A"/>
<path d="M33.2944 37.1333H42.737V44.9333C43.5718 44.9333 44.3724 44.5681 44.9627 43.9179C45.5529 43.2678 45.8845 42.386 45.8845 41.4666V40.6C45.8845 39.6805 46.2162 38.7988 46.8064 38.1487C47.3967 37.4985 48.1973 37.1333 49.0321 37.1333H33.2944Z" fill="#353744"/>
<path d="M33.2944 37.1333H42.737V49.2666C42.737 50.186 42.4054 51.0678 41.8151 51.7179C41.2248 52.368 40.4243 52.7333 39.5895 52.7333H36.442C35.6072 52.7333 34.8066 52.368 34.2163 51.7179C33.626 51.0678 33.2944 50.186 33.2944 49.2666V37.1333Z" fill="#353744"/>
<path d="M42.7381 40.5999V49.2665C41.6946 49.2665 40.6939 48.81 39.9561 47.9973C39.2182 47.1847 38.8037 46.0825 38.8037 44.9332C38.8037 43.7839 39.2182 42.6817 39.9561 41.8691C40.6939 41.0564 41.6946 40.5999 42.7381 40.5999Z" fill="#F0915A"/>
<path d="M49.6886 41.9C50.3405 41.9 50.8689 41.318 50.8689 40.6C50.8689 39.8821 50.3405 39.3 49.6886 39.3C49.0367 39.3 48.5083 39.8821 48.5083 40.6C48.5083 41.318 49.0367 41.9 49.6886 41.9Z" fill="#353744"/>
<path d="M53.6232 41.9C54.2751 41.9 54.8035 41.318 54.8035 40.6C54.8035 39.8821 54.2751 39.3 53.6232 39.3C52.9713 39.3 52.4429 39.8821 52.4429 40.6C52.4429 41.318 52.9713 41.9 53.6232 41.9Z" fill="#353744"/>
<path d="M51.6562 42.0444C52.491 42.0444 53.2916 42.4097 53.8819 43.0598C54.4722 43.7099 54.8038 44.5917 54.8038 45.5111V45.8C54.8038 46.2597 54.638 46.7006 54.3428 47.0257C54.0477 47.3507 53.6474 47.5334 53.23 47.5334C52.8126 47.5334 52.4123 47.3507 52.1172 47.0257C51.8221 46.7006 51.6562 46.2597 51.6562 45.8V42.0444Z" fill="#F0915A"/>
<path d="M41.1636 57.9333C42.4157 57.9333 43.6166 58.4812 44.502 59.4564C45.3874 60.4316 45.8849 61.7542 45.8849 63.1333V65.7333C45.8849 66.4229 46.1336 67.0842 46.5763 67.5718C47.019 68.0594 47.6194 68.3333 48.2455 68.3333C48.8716 68.3333 49.472 68.0594 49.9147 67.5718C50.3574 67.0842 50.6062 66.4229 50.6062 65.7333V63.1333C50.6062 61.7542 50.1087 60.4316 49.2233 59.4564C48.3379 58.4812 47.137 57.9333 45.8849 57.9333H41.1636Z" fill="#D7E6F0"/>
<path d="M49.0319 63.1333C49.0319 61.7542 48.5345 60.4316 47.649 59.4564C46.7636 58.4812 45.5627 57.9333 44.3106 57.9333H42.7368C43.989 57.9333 45.1899 58.4812 46.0753 59.4564C46.9607 60.4316 47.4581 61.7542 47.4581 63.1333V68.1848C47.9673 68.3828 48.5227 68.3828 49.0319 68.1848V63.1333Z" fill="#6478B9"/>
<path d="M61.6228 26.7333H28.5738C27.7046 26.7333 27 27.5093 27 28.4666C27 29.4239 27.7046 30.1999 28.5738 30.1999H61.6228C62.492 30.1999 63.1966 29.4239 63.1966 28.4666C63.1966 27.5093 62.492 26.7333 61.6228 26.7333Z" fill="#353744"/>
<path d="M43.5245 26.7333H28.5738C27.7046 26.7333 27 27.5093 27 28.4666C27 29.4239 27.7046 30.1999 28.5738 30.1999H43.5245C44.3937 30.1999 45.0983 29.4239 45.0983 28.4666C45.0983 27.5093 44.3937 26.7333 43.5245 26.7333Z" fill="#55525B"/>
<path d="M56.9009 30.2H33.2944V37.1333H56.9009V30.2Z" fill="#353744"/>
<path d="M45.0977 31.9333H33.2944V37.1333H45.0977V31.9333Z" fill="#55525B"/>
<path d="M45.8858 25H30.9351C30.5177 25 30.1174 25.1826 29.8223 25.5077C29.5271 25.8327 29.3613 26.2736 29.3613 26.7333V36.2667H30.9351V26.7333H47.4596C47.4596 26.2736 47.2938 25.8327 46.9987 25.5077C46.7035 25.1826 46.3032 25 45.8858 25Z" fill="#FABE19"/>
<path d="M29.3608 37.1333H30.9346V36.2666H29.3608V37.1333Z" fill="#D7E6F0"/>
<path d="M31.3278 43.2H28.9671C28.8628 43.2 28.7627 43.1543 28.6889 43.073C28.6151 42.9918 28.5737 42.8815 28.5737 42.7666V38C28.5737 37.7701 28.6566 37.5497 28.8041 37.3871C28.9517 37.2246 29.1519 37.1333 29.3605 37.1333H30.9343C31.143 37.1333 31.3432 37.2246 31.4907 37.3871C31.6383 37.5497 31.7212 37.7701 31.7212 38V42.7666C31.7212 42.8815 31.6797 42.9918 31.606 43.073C31.5322 43.1543 31.4321 43.2 31.3278 43.2Z" fill="#FABE19"/>
<path d="M30.1479 43.2H28.9676C28.8633 43.2 28.7632 43.1543 28.6894 43.073C28.6156 42.9918 28.5742 42.8815 28.5742 42.7666V38H29.7545C29.8589 38 29.9589 38.0456 30.0327 38.1269C30.1065 38.2081 30.1479 38.3184 30.1479 38.4333V43.2Z" fill="#F5871E"/>
<path d="M51.394 49.2667H54.5416C54.5416 49.7264 54.3758 50.1673 54.0806 50.4924C53.7855 50.8174 53.3852 51.0001 52.9678 51.0001C52.5504 51.0001 52.1501 50.8174 51.855 50.4924C51.5598 50.1673 51.394 49.7264 51.394 49.2667Z" fill="#353744"/>
<path d="M74.5388 65.3743C74.2436 65.0493 73.8434 64.8667 73.426 64.8667C73.0087 64.8667 72.6084 65.0493 72.3133 65.3743L68.5138 69.5589C68.368 69.7203 68.1946 69.8483 68.0035 69.9354C67.8125 70.0226 67.6077 70.0671 67.401 70.0665H63.1965C62.9879 70.0665 62.7877 70.1578 62.6401 70.3204C62.4926 70.4829 62.4097 70.7034 62.4097 70.9332V75.2665H65.5572C65.5572 74.8068 65.723 74.3659 66.0181 74.0409C66.3133 73.7158 66.7136 73.5332 67.131 73.5332H67.401C68.0212 73.5351 68.6356 73.4014 69.2087 73.14C69.7817 72.8785 70.302 72.4945 70.7394 72.0101L74.5388 67.8255C74.8339 67.5004 74.9996 67.0595 74.9996 66.5999C74.9996 66.1402 74.8339 65.6994 74.5388 65.3743Z" fill="#F0915A"/>
<path d="M65.9502 65.7332H62.4092C61.5745 65.7332 60.7739 66.0984 60.1836 66.7485C59.5933 67.3986 59.2617 68.2804 59.2617 69.1998V75.2665H62.4092V70.9331C62.4092 70.7033 62.4921 70.4829 62.6397 70.3203C62.7873 70.1578 62.9874 70.0665 63.1961 70.0665H65.9502C66.4719 70.0665 66.9723 69.8382 67.3412 69.4319C67.7102 69.0256 67.9174 68.4745 67.9174 67.8998C67.9174 67.3252 67.7102 66.7741 67.3412 66.3678C66.9723 65.9614 66.4719 65.7332 65.9502 65.7332Z" fill="#FAB991"/>
<path d="M59.262 75.2666H65.557C65.7657 75.2666 65.9659 75.3579 66.1134 75.5204C66.261 75.683 66.3439 75.9034 66.3439 76.1333V76.9999H58.4751V76.1333C58.4751 75.9034 58.558 75.683 58.7056 75.5204C58.8531 75.3579 59.0533 75.2666 59.262 75.2666Z" fill="#353744"/>
<path d="M74.2125 45.8H71.8518V44.9333C71.8518 44.7035 71.7689 44.483 71.6214 44.3205C71.4738 44.158 71.2736 44.0667 71.0649 44.0667H63.1961C62.9874 44.0667 62.7873 44.158 62.6397 44.3205C62.4921 44.483 62.4092 44.7035 62.4092 44.9333V45.8H60.0486C59.8399 45.8 59.6398 45.8913 59.4922 46.0538C59.3446 46.2164 59.2617 46.4368 59.2617 46.6666V48.4C59.2627 49.3191 59.5946 50.2002 60.1846 50.8501C60.7747 51.5 61.5748 51.8656 62.4092 51.8666C62.4315 51.8666 62.4533 51.8649 62.475 51.863C62.6383 52.928 63.0984 53.9107 63.7916 54.6747C64.4848 55.4387 65.3768 55.9462 66.3437 56.1267V61.4H65.5568C65.1394 61.4 64.7391 61.5826 64.444 61.9076C64.1488 62.2327 63.983 62.6736 63.983 63.1333H70.2781C70.2781 62.6736 70.1123 62.2327 69.8171 61.9076C69.522 61.5826 69.1217 61.4 68.7043 61.4H67.9174V56.1267C68.8843 55.9462 69.7762 55.4387 70.4694 54.6747C71.1626 53.9107 71.6228 52.928 71.786 51.863C71.8078 51.8649 71.8296 51.8666 71.8518 51.8666C72.6863 51.8656 73.4864 51.5 74.0764 50.8501C74.6665 50.2002 74.9984 49.3191 74.9994 48.4V46.6666C74.9994 46.4368 74.9164 46.2164 74.7689 46.0538C74.6213 45.8913 74.4212 45.8 74.2125 45.8ZM60.8355 48.4V47.5333H62.4092V50.1333C61.992 50.1328 61.592 49.95 61.297 49.625C61.0019 49.3001 60.836 48.8595 60.8355 48.4ZM73.4256 48.4C73.4251 48.8595 73.2591 49.3001 72.9641 49.625C72.6691 49.95 72.2691 50.1328 71.8518 50.1333V47.5333H73.4256V48.4Z" fill="#F5871E"/>
<path d="M63.1965 44.0667H67.131V51C67.131 51.6895 66.8822 52.3509 66.4395 52.8384C65.9968 53.326 65.3964 53.6 64.7703 53.6C64.1442 53.6 63.5438 53.326 63.1011 52.8384C62.6584 52.3509 62.4097 51.6895 62.4097 51V44.9333C62.4097 44.7035 62.4926 44.483 62.6401 44.3205C62.7877 44.158 62.9879 44.0667 63.1965 44.0667Z" fill="#FABE19"/>
<path d="M64.7701 45.8C64.7701 45.3214 64.4178 44.9333 63.9832 44.9333C63.5486 44.9333 63.1963 45.3214 63.1963 45.8V51C63.1963 51.4787 63.5486 51.8667 63.9832 51.8667C64.4178 51.8667 64.7701 51.4787 64.7701 51V45.8Z" fill="#FFDC37"/>
<path d="M71.8523 36.2667C72.061 36.2667 72.2612 36.358 72.4087 36.5206C72.5563 36.6831 72.6392 36.9035 72.6392 37.1334V38.8667H71.0654V37.1334C71.0654 36.9035 71.1483 36.6831 71.2959 36.5206C71.4435 36.358 71.6436 36.2667 71.8523 36.2667Z" fill="#FABE19"/>
<path d="M72.6401 40.5999V38.8665H74.2139C74.4226 38.8665 74.6227 38.9578 74.7703 39.1204C74.9179 39.2829 75.0008 39.5033 75.0008 39.7332C75.0008 39.963 74.9179 40.1835 74.7703 40.346C74.6227 40.5085 74.4226 40.5999 74.2139 40.5999H72.6401Z" fill="#FABE19"/>
<path d="M71.8533 43.2C71.6446 43.2 71.4444 43.1086 71.2968 42.9461C71.1493 42.7836 71.0664 42.5631 71.0664 42.3333V40.6H72.6401V42.3333C72.6401 42.5631 72.5572 42.7836 72.4097 42.9461C72.2621 43.1086 72.0619 43.2 71.8533 43.2Z" fill="#FABE19"/>
<path d="M71.0654 38.8667V40.6H69.4917C69.283 40.6 69.0828 40.5087 68.9353 40.3462C68.7877 40.1837 68.7048 39.9632 68.7048 39.7334C68.7048 39.5035 68.7877 39.2831 68.9353 39.1205C69.0828 38.958 69.283 38.8667 69.4917 38.8667H71.0654Z" fill="#FABE19"/>
<path d="M60.0486 53.5999C60.2573 53.5999 60.4574 53.6912 60.605 53.8537C60.7526 54.0162 60.8355 54.2367 60.8355 54.4665V56.1999H59.2617V54.4665C59.2617 54.2367 59.3446 54.0162 59.4922 53.8537C59.6398 53.6912 59.8399 53.5999 60.0486 53.5999Z" fill="#FABE19"/>
<path d="M60.8364 57.9333V56.2H62.4102C62.6189 56.2 62.819 56.2913 62.9666 56.4539C63.1142 56.6164 63.1971 56.8368 63.1971 57.0667C63.1971 57.2965 63.1142 57.517 62.9666 57.6795C62.819 57.842 62.6189 57.9333 62.4102 57.9333H60.8364Z" fill="#FABE19"/>
<path d="M60.0495 60.5332C59.8409 60.5332 59.6407 60.4419 59.4931 60.2794C59.3456 60.1168 59.2627 59.8964 59.2627 59.6665V57.9332H60.8364V59.6665C60.8364 59.8964 60.7535 60.1168 60.606 60.2794C60.4584 60.4419 60.2582 60.5332 60.0495 60.5332Z" fill="#FABE19"/>
<path d="M59.2617 56.2V57.9333H57.688C57.4793 57.9333 57.2791 57.842 57.1315 57.6794C56.984 57.5169 56.9011 57.2965 56.9011 57.0666C56.9011 56.8368 56.984 56.6163 57.1315 56.4538C57.2791 56.2913 57.4793 56.2 57.688 56.2H59.2617Z" fill="#FABE19"/>
<g filter="url(#filter0_f_42_970)">
<path d="M101 51C101 78.6142 78.6142 101 51 101C23.3858 101 1 78.6142 1 51C1 23.3858 23.3858 1 51 1C78.6142 1 101 23.3858 101 51Z" fill="#81BDF5" fill-opacity="0.4"/>
<path d="M91.0008 30.1337C97.1045 39.1986 98.2056 54.9637 91.0008 54.9637C86.8046 55.752 83.5 44 79.5 34C72.2519 23.3586 70.506 19.4922 74.2158 16.7333C79.5565 13.5804 84.8972 21.0687 91.0008 30.1337Z" fill="white" fill-opacity="0.4"/>
</g>
<ellipse cx="49.5" cy="80.5" rx="20.5" ry="1.5" fill="black" fill-opacity="0.1"/>
<defs>
<filter id="filter0_f_42_970" x="0" y="0" width="102" height="102" filterUnits="userSpaceOnUse" color-interpolation-filters="sRGB">
<feFlood flood-opacity="0" result="BackgroundImageFix"/>
<feBlend mode="normal" in="SourceGraphic" in2="BackgroundImageFix" result="shape"/>
<feGaussianBlur stdDeviation="0.5" result="effect1_foregroundBlur_42_970"/>
</filter>
</defs>
</svg>
