<?xml version="1.0" encoding="UTF-8"?>
<svg xmlns="http://www.w3.org/2000/svg"
    xmlns:xlink="http://www.w3.org/1999/xlink" width="50px" height="50px" viewBox="0 0 50 50" version="1.1">
    <g id="surface1">
        <path style=" stroke:none;fill-rule:nonzero;fill:rgb(0%,0%,0%);fill-opacity:1;" d="M 22.363281 0.636719 C 11.886719 2.066406 3.730469 9.6875 1.738281 19.910156 C 0.746094 25.039062 1.480469 30.261719 3.878906 35.089844 L 4.742188 36.808594 L 2.601562 43.128906 C 1.417969 46.59375 0.480469 49.460938 0.5 49.484375 C 0.523438 49.503906 3.507812 48.585938 7.121094 47.4375 L 13.707031 45.335938 L 14.964844 45.933594 C 20.117188 48.34375 25.828125 48.929688 31.265625 47.585938 C 39.613281 45.515625 46.328125 39.035156 48.640625 30.804688 C 49.613281 27.332031 49.773438 23.195312 49.058594 19.667969 C 47.417969 11.574219 41.640625 4.847656 33.816406 1.9375 C 32.632812 1.492188 30.703125 0.988281 29.242188 0.734375 C 27.84375 0.5 23.804688 0.433594 22.363281 0.636719 Z M 28.335938 4.484375 C 36.191406 5.550781 42.863281 11.40625 44.964844 19.078125 C 45.859375 22.351562 45.902344 26.007812 45.082031 29.25 C 43.398438 35.878906 38.375 41.265625 31.851562 43.429688 C 26.277344 45.28125 20.09375 44.644531 15.136719 41.691406 C 14.679688 41.425781 14.261719 41.199219 14.21875 41.199219 C 14.1875 41.199219 12.4375 41.742188 10.339844 42.414062 C 8.25 43.078125 6.535156 43.589844 6.535156 43.535156 C 6.535156 43.492188 7.089844 41.820312 7.769531 39.824219 L 9.007812 36.199219 L 8.453125 35.367188 C 7.757812 34.324219 6.640625 32.054688 6.222656 30.847656 C 2.972656 21.425781 7.269531 11 16.289062 6.4375 C 20.007812 4.5625 24.050781 3.910156 28.335938 4.484375 Z M 28.335938 4.484375 "/>
        <path style=" stroke:none;fill-rule:nonzero;fill:rgb(0%,0%,0%);fill-opacity:1;" d="M 16.363281 13.707031 C 15.519531 14.121094 14.359375 15.742188 13.933594 17.097656 C 13.847656 17.363281 13.742188 18.066406 13.707031 18.652344 C 13.632812 20.019531 13.902344 21.203125 14.636719 22.738281 C 15.179688 23.867188 16.4375 25.765625 17.683594 27.320312 C 19.871094 30.058594 22.566406 32.300781 25.125 33.527344 C 27.121094 34.472656 30.191406 35.488281 31.488281 35.625 C 33.269531 35.808594 35.976562 34.625 36.925781 33.238281 C 37.546875 32.34375 37.886719 30.144531 37.46875 29.761719 C 37.257812 29.570312 33.21875 27.597656 32.417969 27.289062 C 32.140625 27.183594 31.800781 27.128906 31.660156 27.171875 C 31.5 27.203125 31.085938 27.632812 30.617188 28.21875 C 29.464844 29.664062 28.898438 30.21875 28.589844 30.21875 C 28.175781 30.21875 26.105469 29.21875 24.945312 28.449219 C 23.460938 27.46875 21.554688 25.550781 20.519531 24.003906 C 20.09375 23.375 19.753906 22.738281 19.753906 22.597656 C 19.753906 22.449219 20.03125 22.03125 20.5 21.488281 C 21.179688 20.691406 21.777344 19.742188 21.777344 19.441406 C 21.777344 19.378906 21.289062 18.140625 20.691406 16.691406 C 19.988281 15.007812 19.496094 13.964844 19.316406 13.769531 C 19.039062 13.492188 18.984375 13.484375 17.917969 13.484375 C 17.011719 13.484375 16.734375 13.527344 16.363281 13.707031 Z M 16.363281 13.707031 "/>
    </g>
</svg>
