<?xml version="1.0" encoding="utf-8"?>
<svg version="1.1"
    xmlns="http://www.w3.org/2000/svg"
    xmlns:xlink="http://www.w3.org/1999/xlink" x="0px" y="0px" viewBox="0 0 1000 1000" enable-background="new 0 0 1000 1000" xml:space="preserve">
    <g transform="translate(0.000000,462.000000) scale(0.100000,-0.100000)">
<path fill="#fff" d="M4472.9,4492.4C2377.1,4206.7,746.1,2682.3,347.4,637.7c-198.3-1025.5-51.2-2070.2,428.5-3036l172.7-343.2L520.1-4005.9c-236.7-692.9-424.3-1266.4-420-1270.7c4.3-4.3,601.2,179.1,1324,409.4l1317.6,420l251.6-119.4c1029.8-481.8,2172.6-599.1,3259.9-330.5c1669.4,413.6,3012.6,1709.9,3475.3,3355.8c194,695,226,1522.3,83.2,2228c-328.3,1618.2-1483.9,2963.6-3048.8,3545.6c-236.7,89.6-622.6,189.8-914.7,240.9C5568.8,4520.1,4760.7,4532.9,4472.9,4492.4z M5666.9,3722.8c1571.3-213.2,2906-1383.7,3326-2918.8c179.1-654.6,187.6-1385.8,23.4-2034c-336.9-1326.1-1341-2402.8-2645.9-2835.6c-1115.1-371-2351.7-243-3343.1,347.5c-91.7,53.3-174.8,98.1-183.4,98.1c-6.4,0-356.1-108.8-776.1-243.1c-417.9-132.2-761.1-234.5-761.1-223.9c0,8.5,110.9,343.3,247.3,742l247.3,724.9l-110.9,166.3c-138.6,208.9-362.5,663.1-445.6,904C594.7,334.9,1453.9,2420.1,3257.6,3332.6C4001.7,3707.8,4809.8,3837.9,5666.9,3722.8z"/>
<path fill="#fff" d="M3272.6,1878.5c-168.4-83.1-400.8-407.2-486.1-678c-17.1-53.3-38.4-194-44.8-311.3c-14.9-272.9,38.4-509.6,185.5-816.6c108.7-226,360.3-605.5,609.8-916.8c437.1-547.9,976.5-995.7,1488.2-1240.9c398.7-189.8,1012.7-392.3,1272.8-420c356.1-36.3,897.6,200.4,1087.4,477.6c123.7,179.1,191.9,618.3,108.7,695c-42.6,38.4-850.7,432.8-1010.6,494.6c-55.4,21.3-123.7,32-151.4,23.4c-32-6.4-115.1-91.7-209-208.9C5892.9-1313.1,5779.9-1424,5718-1424c-83.1,0-496.8,200.4-729.1,353.9c-296.4,196.2-678,579.9-884.8,889.1c-85.3,125.8-153.5,253.7-153.5,281.4c0,29.9,55.4,113,149.2,221.7c136.4,159.9,255.8,349.6,255.8,409.4c0,12.8-98.1,260.1-217.5,550.1c-140.7,336.9-238.8,545.8-275,584.2c-55.4,55.4-66.1,57.6-279.3,57.6C3402.6,1923.3,3347.2,1914.8,3272.6,1878.5z"/>

    </g>
</svg>