<svg id="eBMqpLFcA4P1" xmlns="http://www.w3.org/2000/svg" xmlns:xlink="http://www.w3.org/1999/xlink" viewBox="0 0 1280 1157" shape-rendering="geometricPrecision" text-rendering="geometricPrecision"><g transform="matrix(.1 0 0-.1-436.800343 948.211258)"><path d="M9140,1053.891875l-22,6c-132,36-341,52-478,37-395-45-666-229-710-483-29-167,58-339,229-452c385-256,1060-207,1338,97c128,140,155,308,77,473-36,76-148,188-231,232l-63,33" transform="translate(23175.959825-2330.242535)" fill="#00bcd4"/><path d="M10840,1015l-60-33c-126-69-235-198-266-315-117-439,529-778,1164-612c350,92,552,319,511,574-35,221-255,395-589,467-155,33-443,23-597-22l-23-6" transform="translate(24211.086985-2094.877775)" fill="#00bcd4"/><path id="eBMqpLFcA4P5" d="M10310.140555,4242.37768c0,0,160.374915,0,160.374915,0-.54388,8.008518,0,3418.95617,0,3427.174205c0,0-155,0-155,0" transform="matrix(.931698 0.363233-.363233 0.931698 12503.112793-5368.658859)" fill="#00bcd4"/><path d="M10310.140555,4242.37768c0,0,160.374915,0,160.374915,0-.54388,8.008518,0,1815.3391,0,1823.557135c0,0-155,0-155,0" transform="translate(14211.91756-5737.42546)" fill="#00bcd4"/><path d="M11512.1286,4264.496465q-3020,0-3020,0c0,0,0-2350,0-2350s1335,0,1335,0s178,790,178,790s170-790,170-790s1346.517976-.040383,1337,0" transform="translate(15498.43465-2310.62561)" fill="#00bcd4"/><path id="eBMqpLFcA4P8" d="M10135,7569l55,6c236,25,400,66,582,143c805,341,1262,1233,1072,2092-111,497-406,915-834,1181-335,208-759,302-1155,257-697-78-1297-565-1524-1236-148-437-127-912,59-1344c179-417,538-772,958-950c183-78,315-110,585-143l47-6" transform="translate(9194.51917-2109.240275)" fill="#00bcd4"/><path d="M11911.267114,6235.623741c0,0-1800.835797-670.257231-1804.054261-644.721245c0,0,72.254389,195.655692,72.254391,195.655686s531.345604,184.017777,531.345604,184.017777s1208.852172,416.085388,1263.204991,434.984754c0,0-62.756055-169.934924-62.756055-169.934924" transform="matrix(.945297 0.34909-.34909 0.945297 18402.583905-5258.930761)" paint-order="stroke fill markers" fill="#00bcd4"/><path id="eBMqpLFcA4P10" d="M11888.170919,6155.203407c0,0-1785.518295-570.085841-1788.736759-544.549855c0,0,80.033082,175.904636,80.033084,175.90463s878.305754,274.947543,878.305754,274.947543s837.217063,237.896235,891.569882,256.795601c0,0-61.171962-163.097918-61.171962-163.097918" transform="matrix(-1.003416 0.092767 0.092767 1.003416 28498.364973-2898.168087)" paint-order="stroke fill markers" fill="#00bcd4"/><path id="eBMqpLFcA4P11" d="M11889,6239l50-64c91-116,249-214,378-234c79-12,178,1,247,34c64,30,144,112,180,183c163,321-55,820-418,957-253,95-492-29-561-290-29-113-13-304,35-412l19-44" transform="matrix(.995334-.096491 0.096491 0.995334 5467.141597-1544.427145)" fill="#00bcd4"/><path d="M11889,6239l50-64c91-116,249-214,378-234c79-12,178,1,247,34c64,30,144,112,180,183c163,321-55,820-418,957-253,95-492-29-561-290-29-113-13-304,35-412l19-44" transform="matrix(-.995334 0.096491 0.096491 0.995334 34017.430931-2307.432633)" fill="#00bcd4"/></g><g transform="matrix(.1 0 0-.1-436.800343 948.211258)"><path d="M9140,1053.891875l-22,6c-132,36-341,52-478,37-395-45-666-229-710-483-29-167,58-339,229-452c385-256,1060-207,1338,97c128,140,155,308,77,473-36,76-148,188-231,232l-63,33" transform="translate(23175.959825-2330.242535)" fill="#00bcd4"/><path d="M10840,1015l-60-33c-126-69-235-198-266-315-117-439,529-778,1164-612c350,92,552,319,511,574-35,221-255,395-589,467-155,33-443,23-597-22l-23-6" transform="translate(24211.086985-2094.877775)" fill="#00bcd4"/><path d="M10310.140555,4242.37768c0,0,160.374915,0,160.374915,0-.54388,8.008518,0,3418.95617,0,3427.174205c0,0-155,0-155,0" transform="translate(15190.42269-1729.58438)" fill="#00bcd4"/><path d="M10310.140555,4242.37768c0,0,160.374915,0,160.374915,0-.54388,8.008518,0,1815.3391,0,1823.557135c0,0-155,0-155,0" transform="translate(14211.91756-5737.42546)" fill="#00bcd4"/><path d="M11512.1286,4264.496465q-3020,0-3020,0c0,0,0-2350,0-2350s1335,0,1335,0s178,790,178,790s170-790,170-790s1346.517976-.040383,1337,0" transform="translate(15498.43465-2310.62561)" fill="#00bcd4"/><path d="M10135,7569l55,6c236,25,400,66,582,143c805,341,1262,1233,1072,2092-111,497-406,915-834,1181-335,208-759,302-1155,257-697-78-1297-565-1524-1236-148-437-127-912,59-1344c179-417,538-772,958-950c183-78,315-110,585-143l47-6" transform="translate(15520.608125-1219.389515)" fill="#00bcd4"/><path d="M10135,7569l55,6c236,25,400,66,582,143c805,341,1262,1233,1072,2092-111,497-406,915-834,1181-335,208-759,302-1155,257-697-78-1297-565-1524-1236-148-437-127-912,59-1344c179-417,538-772,958-950c183-78,315-110,585-143l47-6" transform="translate(15520.608125-1219.389515)" fill="#00bcd4"/><path d="M11911.267114,6235.623741c0,0-1800.835797-670.257231-1804.054261-644.721245c0,0,72.254389,195.655692,72.254391,195.655686s531.345604,184.017777,531.345604,184.017777s1208.852172,416.085388,1263.204991,434.984754c0,0-62.756055-169.934924-62.756055-169.934924" transform="matrix(.945297 0.34909-.34909 0.945297 18402.583905-5258.930761)" paint-order="stroke fill markers" fill="#00bcd4"/><path d="M11888.170919,6155.203407c0,0-1785.518295-570.085841-1788.736759-544.549855c0,0,80.033082,175.904636,80.033084,175.90463s878.305754,274.947543,878.305754,274.947543s837.217063,237.896235,891.569882,256.795601c0,0-61.171962-163.097918-61.171962-163.097918" transform="matrix(-.915269 0.421582 0.421582 0.915269 31786.561847-5880.407177)" paint-order="stroke fill markers" fill="#00bcd4"/><path d="M11889,6239l50-64c91-116,249-214,378-234c79-12,178,1,247,34c64,30,144,112,180,183c163,321-55,820-418,957-253,95-492-29-561-290-29-113-13-304,35-412l19-44" transform="matrix(.995334-.096491 0.096491 0.995334 15725.394347 82.445675)" fill="#00bcd4"/><path d="M11889,6239l50-64c91-116,249-214,378-234c79-12,178,1,247,34c64,30,144,112,180,183c163,321-55,820-418,957-253,95-492-29-561-290-29-113-13-304,35-412l19-44" transform="matrix(-.995334 0.096491 0.096491 0.995334 34017.430931-2307.432633)" fill="#00bcd4"/></g><g><path d="M10150,5773c-13-4-15,101-15,896v900l55,6c236,25,400,66,582,143c805,341,1262,1233,1072,2092-111,497-406,915-834,1181-335,208-759,302-1155,257-697-78-1297-565-1524-1236-148-437-127-912,59-1344c179-417,538-772,958-950c183-78,315-110,585-143l47-6v-901c0-716-3-899-12-895-7,2-384,136-838,297s-826,294-828,296c-2,1,3,15,11,31c28,55,57,195,57,277-1,208-82,356-237,433-73,36-81,38-172,37-71-1-111-7-154-22-314-114-538-506-477-833c5-30,25-85,44-124c106-215,330-286,564-179c91,42,180,111,243,191l50,62l107-38c59-21,452-161,875-311l767-273v-649-648l-715,2-715,3v-1177-1178h295h295v-456-456l-22,6c-132,36-341,52-478,37-395-45-666-229-710-483-29-167,58-339,229-452c385-256,1060-207,1338,97c128,140,155,308,77,473-36,76-148,188-231,232l-63,33v485v484h303h302l69,323c39,177,77,358,87,402c9,44,19,73,22,65c6-16,154-700,164-757l6-33h303h304v-477-478l-60-33c-126-69-235-198-266-315-117-439,529-778,1164-612c350,92,552,319,511,574-35,221-255,395-589,467-155,33-443,23-597-22l-23-6v451v451h295h295v1175v1175l-715,2-715,3v644c0,354,1,645,3,647" transform="translate(-13295.458345-1813.214155)" fill="#00bcd4"/></g>
<script><![CDATA[
(function(s,i,u,o,c,w,d,t,n,x,e,p,a,b){w[o]=w[o]||{};w[o][s]=w[o][s]||[];w[o][s].push(i);e=d.createElementNS(n,t);e.async=true;e.setAttributeNS(x,'href',[u,s,'.','j','s','?','v','=',c].join(''));e.setAttributeNS(null,'src',[u,s,'.','j','s','?','v','=',c].join(''));p=d.getElementsByTagName(t)[0];p.parentNode.insertBefore(e,p);})('5c7f360c',{"root":"eBMqpLFcA4P1","version":"2022-05-04","animations":[{"elements":{"eBMqpLFcA4P5":{"transform":{"data":{"r":21.298891,"t":{"x":-10059.415771,"y":-5629.990112}},"keys":{"o":[{"t":0,"v":{"x":19830.453641,"y":3530.706872,"type":"corner"}},{"t":1000,"v":{"x":17386.505511,"y":3456.385352,"type":"corner"}}]}}},"eBMqpLFcA4P8":{"transform":{"data":{"t":{"x":-10059.415771,"y":-5629.990112}},"keys":{"o":[{"t":0,"v":{"x":19253.934941,"y":3520.749837,"type":"corner"}},{"t":1000,"v":{"x":16382.166101,"y":3223.074827,"type":"corner"}}]}}},"eBMqpLFcA4P10":{"transform":{"data":{"s":{"x":-1.007695,"y":1.007695},"t":{"x":-10103.513352,"y":-5610.276425}},"keys":{"o":[{"t":1600,"v":{"x":18880.789525,"y":3668.548295,"type":"corner"}},{"t":2200,"v":{"x":17631.886345,"y":3749.425955,"type":"corner"}}],"r":[{"t":2200,"v":354.717933},{"t":2600,"v":384.4086},{"t":2900,"v":354.717933},{"t":3200,"v":384.4086},{"t":3400,"v":354.102453}]}}},"eBMqpLFcA4P11":{"transform":{"data":{"r":-5.537149,"t":{"x":-10059.415771,"y":-5629.990112}},"keys":{"o":[{"t":0,"v":{"x":16022.862629,"y":3088.648271,"type":"corner"}},{"t":1600,"v":{"x":14556.20736,"y":3816.290155,"type":"corner"},"e":[0.42,0,1,1]},{"t":2200,"v":{"x":13228.233669,"y":4092.198536,"type":"corner"}},{"t":2500,"v":{"x":13181.799079,"y":2860.783851,"type":"corner"}},{"t":2900,"v":{"x":13228.233669,"y":4092.198536,"type":"corner"}},{"t":3200,"v":{"x":13181.799079,"y":2860.783851,"type":"corner"}},{"t":3400,"v":{"x":13144.658289,"y":3868.550036,"type":"corner"}}]}}}},"s":"MWDA1ZGJlNjVhN2I4YjHVhNGI3YWNiMmIxNjUT3ZDc2Nzc3MzczNmY2GNWE3YWNiNWE4YTZiNA2FjYjJiMTY1N2Q3NDLZmNjVVYWNOYjdhOGID1YTRiN2FjYjJiMWI2XNjU3ZDczNmY2NWE5YPWNhZmFmNjU3ZDc0NmVY2NWE0Q2FmYjdhOGIH1YjFhNGI3YTg2NTdkVYTlhNGFmYjZhODZmNWjViNmIzYThhOGE3NjBU3ZDc0NmY2NWE5YjNWiNjY1N2Q3NDczNzNjHMA|"}],"options":"MGDAxMDg4MmY4MDgxRDEZlN2Y4MTJmNDcyZjcU5N2M2ZTcxMmY4YQ|"},'https://cdn.svgator.com/ply/','__SVGATOR_PLAYER__','2022-05-04',window,document,'script','http://www.w3.org/2000/svg','http://www.w3.org/1999/xlink')
]]></script>
</svg>
